<?xml version="1.0" encoding="UTF-8"?>
<svg id="Layer_1" xmlns="http://www.w3.org/2000/svg" xmlns:xlink="http://www.w3.org/1999/xlink" version="1.1" viewBox="0 0 100 100">
  <!-- Generator: Adobe Illustrator 29.8.2, SVG Export Plug-In . SVG Version: 2.1.1 Build 3)  -->
  <defs>
    <style>
      .st0 {
        fill: #410e75;
      }

      .st1 {
        fill: #5a348a;
      }

      .st2 {
        fill: #f7c97d;
      }

      .st3 {
        fill: url(#linear-gradient);
      }

      .st4 {
        fill: #8623dc;
      }

      .st5 {
        fill: #572c85;
      }

      .st6 {
        fill: #9e4be1;
      }

      .st7 {
        fill: #7a539d;
      }

      .st8 {
        fill: #674392;
      }

      .st9 {
        fill: #412770;
      }

      .st10 {
        display: none;
      }

      .st11 {
        fill: #581598;
      }

      .st12 {
        fill: #c19ce8;
      }
    </style>
    <linearGradient id="linear-gradient" x1="26.87" y1="28.89" x2="72.69" y2="74.71" gradientTransform="translate(-22.01 51.61) rotate(45) scale(1 -1)" gradientUnits="userSpaceOnUse">
      <stop offset=".3" stop-color="#f08351"/>
      <stop offset="1" stop-color="#f8f9f6"/>
    </linearGradient>
  </defs>
  <rect class="st11" x="15.03" y="14.95" width="70.1" height="70.1" rx="15.4" ry="15.4" transform="translate(-20.69 50.06) rotate(-45)"/>
  <rect class="st3" x="17.41" y="17.78" width="64.8" height="64.8" rx="12.3" ry="12.3" transform="translate(-20.9 49.92) rotate(-45)"/>
  <rect class="st2" x="22.33" y="22.63" width="55.1" height="55.1" rx="10.3" ry="10.3" transform="translate(-20.87 49.97) rotate(-45)"/>
  <g class="st10">
    <path class="st1" d="M49.8,18.9v17.9l-13.4,13.4h-17.4c0-1.9.6-3.8,2-5.2l24.1-24.1c1.3-1.3,3-2,4.8-2h-.1Z"/>
    <path class="st7" d="M81.01,50.2h-17.8l-13.4-13.4v-17.9c1.9,0,3.8.6,5.2,2l24.1,24.1c1.4,1.4,2.1,3.3,2,5.2h-.1Z"/>
    <path class="st5" d="M81.1,50.2c0,1.7-.7,3.4-2,4.8l-24.1,24.1c-1.4,1.4-3.3,2.1-5.2,2v-17.4l13.4-13.4h17.8l.1-.1Z"/>
    <path class="st9" d="M49.8,63.7v17.4c-1.7,0-3.5-.7-4.8-2l-24.1-24.1c-1.3-1.3-2-3-2-4.8h17.4l13.4,13.4.1.1Z"/>
    <polygon class="st8" points="63.2 50.2 49.8 63.7 36.3 50.2 49.8 36.8 63.2 50.2"/>
  </g>
  <path class="st0" d="M50.45,63.11v17.75c-2.21.11-4.45-.68-6.14-2.37l-22.81-22.81c-1.52-1.52-2.31-3.5-2.37-5.5h18.39l12.93,12.93Z"/>
  <path class="st11" d="M50.45,18.96v18.29l-12.93,12.93h-18.39c-.08-2.17.71-4.38,2.37-6.04l22.81-22.81c1.69-1.68,3.93-2.48,6.14-2.37Z"/>
  <path class="st11" d="M81.04,50.18c-.06,2-.85,3.98-2.38,5.5l-22.81,22.81c-1.5,1.5-3.43,2.29-5.4,2.37v-17.75l12.93-12.93h17.66Z"/>
  <path class="st6" d="M81.04,50.18h-17.66l-12.93-12.93v-18.29c1.97.08,3.9.87,5.4,2.37l22.81,22.81c1.66,1.66,2.46,3.87,2.38,6.04Z"/>
  <rect class="st4" x="41.31" y="41.04" width="18.29" height="18.29" transform="translate(-20.71 50.37) rotate(-45)"/>
  <rect class="st12" x="56.33" y="34.81" width=".68" height="18.29" transform="translate(-14.48 52.95) rotate(-45)"/>
</svg>