<?xml version="1.0" encoding="UTF-8"?>
<svg id="Layer_1" xmlns="http://www.w3.org/2000/svg" version="1.1" viewBox="0 0 24 24">
  <!-- Generator: Adobe Illustrator 29.8.2, SVG Export Plug-In . SVG Version: 2.1.1 Build 3)  -->
  <defs>
    <style>
      .st0 {
        fill: #fff;
      }
    </style>
  </defs>
  <path class="st0" d="M19.43,20.83l-6.13-6.13c-.5.4-1.08.72-1.73.95s-1.34.35-2.08.35c-1.82,0-3.35-.63-4.61-1.89s-1.89-2.8-1.89-4.61.63-3.35,1.89-4.61,2.8-1.89,4.61-1.89,3.35.63,4.61,1.89,1.89,2.8,1.89,4.61c0,.73-.12,1.43-.35,2.08s-.55,1.23-.95,1.73l6.13,6.13c.1.1.1.25,0,.35l-1.05,1.05c-.1.1-.25.1-.35,0ZM9.5,14c1.25,0,2.31-.44,3.19-1.31s1.31-1.94,1.31-3.19-.44-2.31-1.31-3.19-1.94-1.31-3.19-1.31-2.31.44-3.19,1.31-1.31,1.94-1.31,3.19.44,2.31,1.31,3.19,1.94,1.31,3.19,1.31Z"/>
</svg>