<?xml version="1.0" encoding="UTF-8"?>
<svg id="Layer_1" xmlns="http://www.w3.org/2000/svg" version="1.1" viewBox="0 0 2500 2030">
  <!-- Generator: Adobe Illustrator 29.8.2, SVG Export Plug-In . SVG Version: 2.1.1 Build 3)  -->
  <defs>
    <style>
      .st0 {
        fill: #fff;
      }
    </style>
  </defs>
  <path class="st0" d="M66,72L0,144v163l59,52,59,51h402v90H180v-25c0-25-1-25-90-25H0v190h69c63,0,70-2,86-26l17-26,27,26,27,26h452l61-63,61-62v-160l-64-58-65-57h-391v-100h300v60h180V0h-64c-59,0-66,2-84,27l-21,28-28-28-29-27H132l-66,72ZM850,85v85h70v336l68,67,68,67h400l67-68,67-68V170h60V0h-310v85c0,84,0,85,25,85h25v310h-210V170h60V0h-390v85ZM1700,85v85h70v310h-70v160h400v-160h-35q-35,0-35-45v-45h376l47-48,47-48V114l-58-57L2384,0h-684v85h0ZM2248,222l-3,53-107,3-108,3v-111h221l-3,52ZM0,775v85h70v310H0v170h726l37-38,37-38v-224h-200v130h-270v-100h115l-3-60-4-60h-108v-90h270v130h200v-226l-38-37-38-37H0v85H0ZM1788,771l-88,81v325l89,82,88.98,81h478l72-73,72-72v-135h-200v110h-340v-310h340v100h200v-270h-74c-71,0-75,2-100,31l-26,31-26-31-25.98-31h-373l-87,81ZM0,1470v80h70v320H0v160h735l33-40c32-38,32-39,32-149v-111h-200v140h-270v-100h110v-120h-110v-100h270v140h200v-111c0-110,0-111.02-32-149l-33-40H0v80ZM850,1469v80l33,3,32,3,3,157,3,158h-71v160h737l31-39,32-40v-291h-200v210h-270v-320h70v-160h-400v79ZM1700,1469v80l33,3,32,3,3,157,3,158h-71v160h737l31-39,32-40v-291h-200v210h-270v-320h70v-160h-400v79ZM1648,1267c-3-70-3.99-72-30-75-27-3-28-6.01-28-61.01s0-58.01-47-91.01l-46-34,38.99-33c21.01-18,41.99-33,46.99-33,4,0,7-33,7-73v-73l-53-52-53.01-52h-633.97v170.02h70v310h-70v170h380v-85c0-84,0-85-25-85-23,0-25-3-25-50v-50h140v196l38,37,38,37h255l-3-73ZM1320,966.88h-140v-103.13h140v103.13Z"/>
</svg>