<?xml version="1.0" encoding="UTF-8"?>
<svg id="Layer_1" xmlns="http://www.w3.org/2000/svg" version="1.1" viewBox="0 0 220 150">
  <!-- Generator: Adobe Illustrator 29.8.2, SVG Export Plug-In . SVG Version: 2.1.1 Build 3)  -->
  <defs>
    <style>
      .st0 {
        fill: #fff;
      }
    </style>
  </defs>
  <path class="st0" d="M215.14,23.49c-2.57-9.24-9.98-16.45-19.47-18.95C178.6,0,109.89,0,109.89,0,109.89,0,41.18.13,24.1,4.67,14.61,7.17,7.2,14.39,4.64,23.63c-5.16,29.53-7.18,74.53.14,102.89,2.57,9.24,9.98,16.46,19.47,18.96,17.07,4.53,85.78,4.53,85.78,4.53,0,0,68.71,0,85.78-4.53,9.49-2.5,16.9-9.72,19.47-18.96,5.44-29.58,7.12-74.55-.15-103.03ZM88.02,107.15V42.85l56.99,32.15-56.99,32.15Z"/>
</svg>